<svg class="animated" id="freepik_stories-hard-drive" xmlns="http://www.w3.org/2000/svg" viewBox="0 0 500 500" version="1.1" xmlns:xlink="http://www.w3.org/1999/xlink" xmlns:svgjs="http://svgjs.com/svgjs"><style>svg#freepik_stories-hard-drive:not(.animated) .animable {opacity: 0;}svg#freepik_stories-hard-drive.animated #freepik--background-complete--inject-12 {animation: 1.5s 1 forwards linear slideUp,1.5s Infinite  linear floating;animation-delay: 0s,1.5s;}svg#freepik_stories-hard-drive.animated #freepik--Tab--inject-12 {animation: 6s Infinite  linear heartbeat;animation-delay: 0s;}svg#freepik_stories-hard-drive.animated #freepik--device-1--inject-12 {animation: 1.5s Infinite  linear wind;animation-delay: 0s;}svg#freepik_stories-hard-drive.animated #freepik--device-2--inject-12 {animation: 1s 1 forwards cubic-bezier(.36,-0.01,.5,1.38) slideDown,6s Infinite  linear shake;animation-delay: 0s,1s;}svg#freepik_stories-hard-drive.animated #freepik--Character--inject-12 {animation: 3s Infinite  linear floating;animation-delay: -0.5s;}            @keyframes slideUp {                0% {                    opacity: 0;                    transform: translateY(30px);                }                100% {                    opacity: 1;                    transform: inherit;                }            }                    @keyframes floating {                0% {                    opacity: 1;                    transform: translateY(0px);                }                50% {                    transform: translateY(-10px);                }                100% {                    opacity: 1;                    transform: translateY(0px);                }            }                    @keyframes heartbeat {                0% {                    transform: scale(1);                }                10% {                    transform: scale(1.1);                }                30% {                    transform: scale(1);                }                40% {                    transform: scale(1);                }                50% {                    transform: scale(1.1);                }                60% {                    transform: scale(1);                }                100% {                    transform: scale(1);                }            }                    @keyframes wind {                0% {                    transform: rotate( 0deg );                }                25% {                    transform: rotate( 1deg );                }                75% {                    transform: rotate( -1deg );                }            }                    @keyframes slideDown {                0% {                    opacity: 0;                    transform: translateY(-30px);                }                100% {                    opacity: 1;                    transform: translateY(0);                }            }                    @keyframes shake {                10%, 90% {                    transform: translate3d(-1px, 0, 0);                  }                  20%, 80% {                    transform: translate3d(2px, 0, 0);                  }                  30%, 50%, 70% {                    transform: translate3d(-4px, 0, 0);                  }                  40%, 60% {                    transform: translate3d(4px, 0, 0);                  }            }        </style><g id="freepik--background-complete--inject-12" class="animable" style="transform-origin: 250px 214.195px;"><path d="M443.92,309.51H263.17a5.87,5.87,0,0,1-5.86-5.87V40.37a5.87,5.87,0,0,1,5.86-5.86H443.92a5.87,5.87,0,0,1,5.86,5.86V303.64A5.87,5.87,0,0,1,443.92,309.51ZM263.17,34.76a5.62,5.62,0,0,0-5.61,5.61V303.64a5.62,5.62,0,0,0,5.61,5.62H443.92a5.62,5.62,0,0,0,5.61-5.62V40.37a5.61,5.61,0,0,0-5.61-5.61Z" style="fill: rgb(224, 224, 224); transform-origin: 353.545px 172.01px;" id="elo4cm5dyiqo" class="animable"></path><path d="M235.49,309.51H54.75a5.87,5.87,0,0,1-5.87-5.87V40.37a5.87,5.87,0,0,1,5.87-5.86H235.49a5.86,5.86,0,0,1,5.86,5.86V303.64A5.86,5.86,0,0,1,235.49,309.51ZM54.75,34.76a5.62,5.62,0,0,0-5.62,5.61V303.64a5.62,5.62,0,0,0,5.62,5.62H235.49a5.62,5.62,0,0,0,5.61-5.62V40.37a5.61,5.61,0,0,0-5.61-5.61Z" style="fill: rgb(224, 224, 224); transform-origin: 145.115px 172.01px;" id="el8jnvmew9hcd" class="animable"></path><rect y="370.58" width="500" height="0.25" style="fill: rgb(224, 224, 224); transform-origin: 250px 370.705px;" id="el6cus2i3fbys" class="animable"></rect><rect x="101.8" y="59.97" width="58.27" height="109.86" style="fill: rgb(228, 228, 228); transform-origin: 130.935px 114.9px;" id="elccbucconfsh" class="animable"></rect><rect x="88.76" y="59.97" width="68.45" height="109.86" style="fill: rgb(244, 244, 244); transform-origin: 122.985px 114.9px;" id="elp9ridvgi0c" class="animable"></rect><rect x="99.16" y="69.73" width="47.61" height="90.34" style="fill: rgb(255, 255, 255); transform-origin: 122.965px 114.9px;" id="elh8hcasm8zrd" class="animable"></rect><rect x="182.34" y="85.08" width="32.58" height="61.42" style="fill: rgb(228, 228, 228); transform-origin: 198.63px 115.79px;" id="eldtoxtpxu7n" class="animable"></rect><rect x="175.05" y="85.08" width="38.27" height="61.42" style="fill: rgb(244, 244, 244); transform-origin: 194.185px 115.79px;" id="el97ye3jdrgj5" class="animable"></rect><rect x="180.87" y="90.54" width="26.62" height="50.51" style="fill: rgb(255, 255, 255); transform-origin: 194.18px 115.795px;" id="el40e5wvw5rqy" class="animable"></rect><path d="M464.7,307.21c-1.48-4.27-13.21,1.53-18,8.61a36.75,36.75,0,0,0-6,16.5c.11-7.7.23-16,.35-23.81,1-1.95,3.17-6.44,4.74-10,5.28-11.88,17.83-16.34,22.16-23.81,5.68-9.83,5.64-24.58.81-29.9-4.2-4.62-18.11,26.65-19.68,30.14a93,93,0,0,0-8,29.57c.12-7.34.23-14.11.32-19.31.3-17,.66-22.43.83-24.11.58-.81,1.27-1.77,1.67-2.28,3.36-4.33,10.83-9.49,14.56-15.79,5.45-9.2,4.58-20.21.74-24.31-4-4.29-11.06,5.84-14.81,15.88s-2.15,19.64-3.2,28c-.22,1.64-.45,7.85-.66,16.46-1.14-9.27-3.41-15.48-7.61-21.26-5.2-7.12-9.66-15.79-13.88-14.66s-2,12.58,1.4,20.63c3,7.17,17.83,14.32,20,20.09-.26,11.67-.49,26.47-.65,40.24-1.17-7.12-.37-7.71-5.15-18.61-2.84-6.47-14.49-14.46-15.88-10s.74,12.86,5.12,18.75c3.55,4.75,11.42,4.74,13.24,7.69.43.69,1.84,3.33,2.64,4.84-.2,16.82-.28,31.67-.18,36.72l.74.06c0-1.31.06-9.87.21-21.19,1.92-6,14.79-9.53,18.76-15.8C463.5,320,466.49,312.33,464.7,307.21Z" style="fill: rgb(228, 228, 228); transform-origin: 444.515px 290.619px;" id="elrb8nydywpxg" class="animable"></path><path d="M452.61,371.09H427.9a2.84,2.84,0,0,1-2.78-2.28l-1.75-8.64h33.77l-1.76,8.64A2.82,2.82,0,0,1,452.61,371.09Z" style="fill: rgb(239, 239, 239); transform-origin: 440.255px 365.63px;" id="el4r9vr881cfn" class="animable"></path><path d="M457.85,363.52H422.66A1.66,1.66,0,0,1,421,362l-.74-6.39a1.65,1.65,0,0,1,1.47-1.83h36.81a1.65,1.65,0,0,1,1.65,1.66,1.09,1.09,0,0,1,0,.18l-.74,6.39A1.66,1.66,0,0,1,457.85,363.52Z" style="fill: rgb(239, 239, 239); transform-origin: 440.221px 358.65px;" id="el58p9sb0dea" class="animable"></path><path d="M278.79,62.87l-1.93-3.23A3.41,3.41,0,0,0,273.8,58l-27.11.87a3.42,3.42,0,0,0-3.31,3.53h0L245,114.21a3.58,3.58,0,0,0,3.68,3.44l61.61-2a3.57,3.57,0,0,0,3.44-3.67L312.3,66.76a3.42,3.42,0,0,0-3.52-3.32h0l-27.34.89A3,3,0,0,1,278.79,62.87Z" style="fill: rgb(222, 222, 222); transform-origin: 278.555px 87.8242px;" id="elw8y6rp82s6f" class="animable"></path><path d="M308.79,63.44l-27.11.88a3.42,3.42,0,0,0-2.94,1.86L277,69.53a3,3,0,0,1-2.54,1.62L247.14,72a3.43,3.43,0,0,0-3.32,3.52L245,114.21a3.58,3.58,0,0,0,3.68,3.44l61.61-2a3.57,3.57,0,0,0,3.44-3.67L312.3,66.76a3.41,3.41,0,0,0-3.51-3.32Z" style="fill: rgb(239, 239, 239); transform-origin: 278.775px 90.545px;" id="elhogla4b2z6" class="animable"></path><path d="M137.19,249.74l-49.8,17.45a1.65,1.65,0,0,1-2.1-1h0L62,199.6a1.66,1.66,0,0,1,1-2.11l30.68-10.75,28,13.62,16.58,47.3A1.65,1.65,0,0,1,137.19,249.74Z" style="fill: rgb(239, 239, 239); transform-origin: 100.123px 227.012px;" id="el0kug6yusxpq" class="animable"></path><polygon points="121.62 200.34 93.64 186.74 92.01 187.31 100.92 212.73 123.22 204.91 121.62 200.34" style="fill: rgb(228, 228, 228); transform-origin: 107.615px 199.735px;" id="el9lz5klft19a" class="animable"></polygon><polygon points="121.56 200.17 100.89 207.42 93.64 186.74 121.56 200.17" style="fill: none; transform-origin: 107.6px 197.08px;" id="elf2t6obselre" class="animable"></polygon><polygon points="121.56 200.17 100.89 207.42 93.64 186.74 121.56 200.17" style="fill: rgb(240, 240, 240); transform-origin: 107.6px 197.08px;" id="elt7af9wxmnfl" class="animable"></polygon><g id="elhyghbeqsyt5"><rect x="81.71" y="214.78" width="39.03" height="24.74" style="fill: rgb(228, 228, 228); transform-origin: 101.225px 227.15px; transform: rotate(-19.32deg);" class="animable"></rect></g><polygon points="94.41 233.63 89.2 244.47 105.24 238.84 94.41 233.63" style="fill: rgb(249, 249, 249); transform-origin: 97.22px 239.05px;" id="el1u26ideyiye" class="animable"></polygon><polygon points="101.63 240.1 123.73 232.36 122.98 230.24 109.5 223.75 101.63 240.1" style="fill: rgb(249, 249, 249); transform-origin: 112.68px 231.925px;" id="elmq7gymx4wbm" class="animable"></polygon><path d="M100.29,223.68A4.17,4.17,0,1,1,95,221.13h0A4.16,4.16,0,0,1,100.29,223.68Z" style="fill: rgb(249, 249, 249); transform-origin: 96.3593px 225.071px;" id="el94ite8sgsr" class="animable"></path><polygon points="376.41 75.57 433.05 96.54 407.51 167.78 350.87 146.81 376.41 75.57" style="fill: rgb(240, 240, 240); transform-origin: 391.96px 121.675px;" id="elg5twsl0fn66" class="animable"></polygon><path d="M413.2,107.93l-32-11.69a3,3,0,0,1-1.8-3.81h0a3,3,0,0,1,3.82-1.77l32,11.69a3,3,0,0,1,1.79,3.82h0A3,3,0,0,1,413.2,107.93Z" style="fill: rgb(255, 255, 255); transform-origin: 398.207px 99.294px;" id="el09gtvnpyyjr6" class="animable"></path><path d="M409,119.71,377,108a3,3,0,0,1-1.79-3.81h0a3,3,0,0,1,3.83-1.77l32,11.69a3,3,0,0,1,1.79,3.82h0A3,3,0,0,1,409,119.71Z" style="fill: rgb(255, 255, 255); transform-origin: 394.022px 111.064px;" id="el1wonp46u0qx" class="animable"></path><path d="M404.84,131.2l-32-11.7a3,3,0,0,1-1.79-3.81h0a3,3,0,0,1,3.83-1.76l32,11.68a3,3,0,0,1,1.79,3.83h0A3,3,0,0,1,404.84,131.2Z" style="fill: rgb(255, 255, 255); transform-origin: 389.863px 122.565px;" id="el9zqhalnf338" class="animable"></path><path d="M374.9,145.9l-8.81-3.22a3,3,0,0,1-1.79-3.82h0a3,3,0,0,1,3.82-1.77l8.81,3.23a3,3,0,0,1,1.79,3.81h0A3,3,0,0,1,374.9,145.9Z" style="fill: rgb(255, 255, 255); transform-origin: 371.508px 141.495px;" id="elcgtyonzjam9" class="animable"></path><path d="M400.5,143.26l-32-11.7a3,3,0,0,1-1.8-3.82h0a3,3,0,0,1,3.83-1.76l32,11.68a3,3,0,0,1,1.79,3.83h0A3,3,0,0,1,400.5,143.26Z" style="fill: rgb(255, 255, 255); transform-origin: 385.512px 134.618px;" id="elzd80oml1pk" class="animable"></path><rect x="416.88" y="390.92" width="33.12" height="0.25" style="fill: rgb(235, 235, 235); transform-origin: 433.44px 391.045px;" id="elqo92ngdko2i" class="animable"></rect><rect x="322.63" y="393.63" width="8.69" height="0.25" style="fill: rgb(235, 235, 235); transform-origin: 326.975px 393.755px;" id="el8eik3do3hxl" class="animable"></rect><rect x="396.69" y="381.63" width="19.19" height="0.25" style="fill: rgb(235, 235, 235); transform-origin: 406.285px 381.755px;" id="elprmos5fzh6" class="animable"></rect><rect x="52.56" y="383.31" width="43.19" height="0.25" style="fill: rgb(235, 235, 235); transform-origin: 74.155px 383.435px;" id="elgdz8s6z6a15" class="animable"></rect><rect x="104.66" y="383.31" width="6.33" height="0.25" style="fill: rgb(235, 235, 235); transform-origin: 107.825px 383.435px;" id="elyfetbqvjal" class="animable"></rect><rect x="131.57" y="387.53" width="93.68" height="0.25" style="fill: rgb(235, 235, 235); transform-origin: 178.41px 387.655px;" id="el4gl7gngmhyg" class="animable"></rect></g><g id="freepik--Shadow--inject-12" class="animable" style="transform-origin: 255.375px 444.67px;"><path d="M464.25,444.67c0,3.39-93.52,6.13-208.87,6.13S46.5,448.06,46.5,444.67s93.52-6.13,208.88-6.13S464.25,441.29,464.25,444.67Z" style="fill: rgb(245, 245, 245); transform-origin: 255.375px 444.67px;" id="elur0azg19mkg" class="animable"></path></g><g id="freepik--Tab--inject-12" class="animable" style="transform-origin: 251.75px 186.71px;"><path d="M133.25,116V260.77a7.65,7.65,0,0,0,7.65,7.65H367.35a2.9,2.9,0,0,0,2.9-2.9V115a3.88,3.88,0,0,0-3.88-3.88H138.11A4.85,4.85,0,0,0,133.25,116Z" style="fill: rgb(81, 208, 141); transform-origin: 251.75px 189.77px;" id="elsf5f6hbogx9" class="animable"></path><g id="el4aew4e1bxpc"><path d="M133.25,116V260.77a7.65,7.65,0,0,0,7.65,7.65H367.35a2.9,2.9,0,0,0,2.9-2.9V115a3.88,3.88,0,0,0-3.88-3.88H138.11A4.85,4.85,0,0,0,133.25,116Z" style="fill: rgb(255, 255, 255); opacity: 0.7; transform-origin: 251.75px 189.77px;" class="animable"></path></g><path d="M138.11,111.16H366.37a3.88,3.88,0,0,1,3.88,3.88v8.74a0,0,0,0,1,0,0h-237a0,0,0,0,1,0,0V116A4.86,4.86,0,0,1,138.11,111.16Z" style="fill: rgb(81, 208, 141); transform-origin: 251.75px 117.47px;" id="el3ld4202kh8z" class="animable"></path><g id="elwoq1fqd22kn"><path d="M367.1,117.47a2.68,2.68,0,1,1-2.68-2.68A2.68,2.68,0,0,1,367.1,117.47Z" style="fill: rgb(255, 255, 255); opacity: 0.3; transform-origin: 364.42px 117.47px;" class="animable"></path></g><g id="elf6k91o1c6d4"><path d="M359.48,117.47a2.69,2.69,0,1,1-2.69-2.68A2.68,2.68,0,0,1,359.48,117.47Z" style="fill: rgb(255, 255, 255); opacity: 0.3; transform-origin: 356.79px 117.48px;" class="animable"></path></g><g id="el3dgc8y729y5"><path d="M351.85,117.47a2.68,2.68,0,1,1-2.68-2.68A2.68,2.68,0,0,1,351.85,117.47Z" style="fill: rgb(255, 255, 255); opacity: 0.3; transform-origin: 349.17px 117.47px;" class="animable"></path></g><g id="eliu51g9jyoa"><path d="M366.89,123.78h3.36a0,0,0,0,1,0,0V265.49a2.9,2.9,0,0,1-2.9,2.9h-.46a0,0,0,0,1,0,0V123.78A0,0,0,0,1,366.89,123.78Z" style="opacity: 0.1; transform-origin: 368.57px 196.085px;" class="animable"></path></g><rect x="366.89" y="125.35" width="3.36" height="33.24" style="fill: rgb(255, 255, 255); transform-origin: 368.57px 141.97px;" id="elljv9puj5avf" class="animable"></rect><g id="el2wkso4z0yv8"><rect x="303.12" y="245.94" width="42.21" height="22.48" style="fill: rgb(255, 255, 255); opacity: 0.8; transform-origin: 324.225px 257.18px;" class="animable"></rect></g><rect x="308.07" y="251.14" width="32.3" height="2.28" rx="1.14" style="fill: rgb(81, 208, 141); transform-origin: 324.22px 252.28px;" id="elgrtn0rwg8m8" class="animable"></rect><rect x="308.07" y="256.04" width="32.3" height="2.28" rx="1.14" style="fill: rgb(81, 208, 141); transform-origin: 324.22px 257.18px;" id="elgo99uijur1o" class="animable"></rect><rect x="308.07" y="260.94" width="32.3" height="2.28" rx="1.14" style="fill: rgb(81, 208, 141); transform-origin: 324.22px 262.08px;" id="el7filnaixct9" class="animable"></rect><g id="el7evmsp1hxk4"><rect x="308.07" y="251.14" width="32.3" height="2.28" rx="1.14" style="fill: rgb(255, 255, 255); opacity: 0.4; transform-origin: 324.22px 252.28px;" class="animable"></rect></g><g id="el30jlh8jn7z"><rect x="308.07" y="256.04" width="32.3" height="2.28" rx="1.14" style="fill: rgb(255, 255, 255); opacity: 0.4; transform-origin: 324.22px 257.18px;" class="animable"></rect></g><g id="elf6yjkexiws"><rect x="308.07" y="260.94" width="32.3" height="2.28" rx="1.14" style="fill: rgb(255, 255, 255); opacity: 0.4; transform-origin: 324.22px 262.08px;" class="animable"></rect></g><g id="el5fth3wvondj"><rect x="159.11" y="245.86" width="42.21" height="22.48" style="fill: rgb(255, 255, 255); opacity: 0.8; transform-origin: 180.215px 257.1px;" class="animable"></rect></g><rect x="164.06" y="251.07" width="32.3" height="2.28" rx="1.14" style="fill: rgb(81, 208, 141); transform-origin: 180.21px 252.21px;" id="elaw6agiy3qu" class="animable"></rect><rect x="164.06" y="255.96" width="32.3" height="2.28" rx="1.14" style="fill: rgb(81, 208, 141); transform-origin: 180.21px 257.1px;" id="elm2stz52s15" class="animable"></rect><rect x="164.06" y="260.86" width="32.3" height="2.28" rx="1.14" style="fill: rgb(81, 208, 141); transform-origin: 180.21px 262px;" id="elhbh7hljkou" class="animable"></rect><g id="ellepgv4wk0r"><rect x="164.06" y="251.07" width="32.3" height="2.28" rx="1.14" style="fill: rgb(255, 255, 255); opacity: 0.4; transform-origin: 180.21px 252.21px;" class="animable"></rect></g><g id="els48l1ob6mje"><rect x="164.06" y="255.96" width="32.3" height="2.28" rx="1.14" style="fill: rgb(255, 255, 255); opacity: 0.4; transform-origin: 180.21px 257.1px;" class="animable"></rect></g><g id="elgpyij5wzemj"><rect x="164.06" y="260.86" width="32.3" height="2.28" rx="1.14" style="fill: rgb(255, 255, 255); opacity: 0.4; transform-origin: 180.21px 262px;" class="animable"></rect></g><g id="elhlsy0bfu7m"><rect x="231.3" y="245.94" width="41.83" height="22.44" style="fill: rgb(255, 255, 255); opacity: 0.8; transform-origin: 252.215px 257.16px;" class="animable"></rect></g><rect x="233.77" y="248.18" width="36.89" height="20.2" style="fill: rgb(81, 208, 141); transform-origin: 252.215px 258.28px;" id="elsg4f529bq1" class="animable"></rect><g id="elbhbhxvmbvpk"><rect x="233.77" y="248.18" width="36.89" height="20.2" style="fill: rgb(255, 255, 255); opacity: 0.4; transform-origin: 252.215px 258.28px;" class="animable"></rect></g><polygon points="236.53 268.42 242.68 264.22 247.88 268.39 236.53 268.42" style="fill: rgb(255, 255, 255); transform-origin: 242.205px 266.32px;" id="el1gxv3jtaz05" class="animable"></polygon><polygon points="251.22 268.39 261.7 261.35 269.66 268.39 251.22 268.39" style="fill: rgb(255, 255, 255); transform-origin: 260.44px 264.87px;" id="elq9whfeu5hrm" class="animable"></polygon><path d="M246.26,257.1a2.88,2.88,0,1,1-2.88-2.87A2.87,2.87,0,0,1,246.26,257.1Z" style="fill: rgb(255, 255, 255); transform-origin: 243.38px 257.11px;" id="el9yl3qxpb21" class="animable"></path><rect x="231.71" y="139.8" width="38.69" height="13.26" style="fill: rgb(255, 255, 255); transform-origin: 251.055px 146.43px;" id="el4n50hgfxafe" class="animable"></rect><path d="M228.47,140.42v28.05a1.41,1.41,0,0,0,1.41,1.41h41.29a1.41,1.41,0,0,0,1.41-1.41V143.18a1.41,1.41,0,0,0-1.41-1.41H246.06a1.41,1.41,0,0,1-1.23-.71l-.79-1.39a1.15,1.15,0,0,0-1-.58H229.84A1.35,1.35,0,0,0,228.47,140.42Z" style="fill: rgb(81, 208, 141); transform-origin: 250.525px 154.485px;" id="elh6tcd2eooev" class="animable"></path><rect x="231.71" y="193.54" width="38.69" height="13.26" style="fill: rgb(255, 255, 255); transform-origin: 251.055px 200.17px;" id="elnrb1ezrgt4m" class="animable"></rect><path d="M228.47,194.16v28.05a1.41,1.41,0,0,0,1.41,1.41h41.29a1.41,1.41,0,0,0,1.41-1.41V196.92a1.41,1.41,0,0,0-1.41-1.41H246.06a1.41,1.41,0,0,1-1.23-.71l-.79-1.39a1.15,1.15,0,0,0-1-.58H229.84A1.36,1.36,0,0,0,228.47,194.16Z" style="fill: rgb(81, 208, 141); transform-origin: 250.525px 208.225px;" id="eleyc7necvdv9" class="animable"></path><rect x="160.69" y="139.8" width="38.69" height="13.26" style="fill: rgb(255, 255, 255); transform-origin: 180.035px 146.43px;" id="el0edhynlmq57q" class="animable"></rect><path d="M157.45,140.42v28.05a1.41,1.41,0,0,0,1.41,1.41h41.29a1.41,1.41,0,0,0,1.41-1.41V143.18a1.41,1.41,0,0,0-1.41-1.41H175a1.41,1.41,0,0,1-1.23-.71l-.79-1.39a1.15,1.15,0,0,0-1-.58H158.82A1.34,1.34,0,0,0,157.45,140.42Z" style="fill: rgb(81, 208, 141); transform-origin: 179.505px 154.485px;" id="elczq1q51uxof" class="animable"></path><rect x="160.69" y="193.54" width="38.69" height="13.26" style="fill: rgb(255, 255, 255); transform-origin: 180.035px 200.17px;" id="el4bge3053soe" class="animable"></rect><path d="M157.45,194.16v28.05a1.41,1.41,0,0,0,1.41,1.41h41.29a1.41,1.41,0,0,0,1.41-1.41V196.92a1.41,1.41,0,0,0-1.41-1.41H175a1.41,1.41,0,0,1-1.23-.71l-.79-1.39a1.15,1.15,0,0,0-1-.58H158.82A1.35,1.35,0,0,0,157.45,194.16Z" style="fill: rgb(81, 208, 141); transform-origin: 179.505px 208.225px;" id="elkyq3dd5t1wq" class="animable"></path><rect x="302.73" y="139.8" width="38.69" height="13.26" style="fill: rgb(255, 255, 255); transform-origin: 322.075px 146.43px;" id="el87owk5qgi5l" class="animable"></rect><path d="M299.49,140.42v28.05a1.41,1.41,0,0,0,1.41,1.41h41.29a1.41,1.41,0,0,0,1.41-1.41V143.18a1.41,1.41,0,0,0-1.41-1.41H317.08a1.42,1.42,0,0,1-1.23-.71l-.78-1.39a1.17,1.17,0,0,0-1-.58H300.87A1.35,1.35,0,0,0,299.49,140.42Z" style="fill: rgb(81, 208, 141); transform-origin: 321.545px 154.485px;" id="elhza4pnknpxh" class="animable"></path><path d="M300.9,224.3a1.89,1.89,0,0,1-1.31-.52.5.5,0,0,1,.69-.73.9.9,0,0,0,.62.25h3.8a.5.5,0,0,1,.5.5.5.5,0,0,1-.5.5h-3.8Zm41.29,0h-3.43a.5.5,0,0,1-.5-.5.51.51,0,0,1,.5-.5h3.43a.91.91,0,0,0,.78-.43.48.48,0,0,1,.68-.16.49.49,0,0,1,.17.68A1.9,1.9,0,0,1,342.19,224.3Zm-8.29,0H329a.5.5,0,0,1-.5-.5.5.5,0,0,1,.5-.5h4.87a.51.51,0,0,1,.5.5A.5.5,0,0,1,333.9,224.3Zm-9.73,0H319.3a.5.5,0,0,1-.5-.5.5.5,0,0,1,.5-.5h4.87a.51.51,0,0,1,.5.5A.5.5,0,0,1,324.17,224.3Zm-9.74,0h-4.86a.5.5,0,0,1-.5-.5.5.5,0,0,1,.5-.5h4.86a.5.5,0,0,1,.5.5A.5.5,0,0,1,314.43,224.3Zm-14.94-5.13a.5.5,0,0,1-.5-.5v-4.86a.5.5,0,0,1,.5-.5.5.5,0,0,1,.5.5v4.86A.5.5,0,0,1,299.49,219.17Zm44.11-.37a.5.5,0,0,1-.5-.5v-4.86a.5.5,0,1,1,1,0v4.86A.5.5,0,0,1,343.6,218.8Zm-44.11-9.36a.5.5,0,0,1-.5-.5v-4.87a.51.51,0,0,1,.5-.5.5.5,0,0,1,.5.5v4.87A.5.5,0,0,1,299.49,209.44Zm44.11-.37a.5.5,0,0,1-.5-.5v-4.86a.5.5,0,0,1,1,0v4.86A.5.5,0,0,1,343.6,209.07Zm-44.11-9.36a.51.51,0,0,1-.5-.5v-4.87a.51.51,0,0,1,.5-.51.49.49,0,0,1,.5.49v4.89A.5.5,0,0,1,299.49,199.71Zm44.11-.37a.5.5,0,0,1-.5-.5V197.1a.91.91,0,0,0-.91-.91h-.91a.5.5,0,0,1-.5-.5.5.5,0,0,1,.5-.5h.91a1.92,1.92,0,0,1,1.91,1.91v1.74A.5.5,0,0,1,343.6,199.34ZM317,196.19h0c-1.06-.05-1.6-1.07-2-1.82-.1-.19-.19-.36-.28-.51a.68.68,0,0,0-.6-.35h-.69a.5.5,0,0,1-.5-.5.5.5,0,0,1,.5-.5h.69a1.67,1.67,0,0,1,1.45.83c.09.15.2.35.32.57.31.59.66,1.26,1.15,1.28a.51.51,0,0,1,.48.53A.5.5,0,0,1,317,196.19Zm19.46,0h-4.87a.5.5,0,0,1-.5-.5.51.51,0,0,1,.5-.5h4.87a.5.5,0,0,1,.5.5A.5.5,0,0,1,336.41,196.19Zm-9.73,0h-4.87a.5.5,0,0,1-.5-.5.51.51,0,0,1,.5-.5h4.87a.51.51,0,0,1,.5.5A.5.5,0,0,1,326.68,196.19Zm-18.19-2.68h-4.86a.5.5,0,0,1-.5-.5.5.5,0,0,1,.5-.5h4.86a.5.5,0,0,1,.5.5A.5.5,0,0,1,308.49,193.51Z" style="fill: rgb(81, 208, 141); transform-origin: 321.545px 208.405px;" id="elz6kciv5oecc" class="animable"></path><path d="M320.2,202.14a7.87,7.87,0,1,0,8.7,6.94A7.88,7.88,0,0,0,320.2,202.14Zm5.3,12.27a6.28,6.28,0,1,1,0-8.87A6.28,6.28,0,0,1,325.5,214.41Z" style="fill: rgb(81, 208, 141); transform-origin: 321.079px 209.961px;" id="elplb553smn0b" class="animable"></path><polygon points="324.87 208.98 322.08 208.97 322.09 206.18 320.1 206.17 320.09 208.96 317.3 208.95 317.29 210.95 320.08 210.96 320.06 213.75 322.06 213.76 322.07 210.97 324.86 210.98 324.87 208.98" style="fill: rgb(81, 208, 141); transform-origin: 321.08px 209.965px;" id="elvg8y5hykodf" class="animable"></polygon><path d="M196.2,106h-21a.5.5,0,0,1-.5-.5.5.5,0,0,1,.5-.5h21a.5.5,0,0,1,.5.5A.51.51,0,0,1,196.2,106Z" style="fill: rgb(81, 208, 141); transform-origin: 185.7px 105.5px;" id="el5tlpu2wqlw3" class="animable"></path><path d="M206.38,106H202a.5.5,0,0,1-.5-.5.5.5,0,0,1,.5-.5h4.38a.5.5,0,0,1,.5.5A.5.5,0,0,1,206.38,106Z" style="fill: rgb(81, 208, 141); transform-origin: 204.19px 105.5px;" id="elosyq4kgu1c" class="animable"></path></g><g id="freepik--device-1--inject-12" class="animable" style="transform-origin: 108.56px 344.54px;"><path d="M57.76,261.75H159.28a7.19,7.19,0,0,1,7.19,7.19V415.6a11.27,11.27,0,0,1-11.27,11.27H58a7.12,7.12,0,0,1-7.12-7.12V268.68A6.93,6.93,0,0,1,57.76,261.75Z" style="fill: rgb(38, 50, 56); transform-origin: 108.675px 344.31px;" id="elo3c7948nu9" class="animable"></path><g id="elq5vvi8lmhq"><g style="opacity: 0.6; transform-origin: 108.675px 344.31px;" class="animable"><path d="M57.76,261.75H159.28a7.19,7.19,0,0,1,7.19,7.19V415.6a11.27,11.27,0,0,1-11.27,11.27H58a7.12,7.12,0,0,1-7.12-7.12V268.68A6.93,6.93,0,0,1,57.76,261.75Z" style="fill: rgb(255, 255, 255); transform-origin: 108.675px 344.31px;" id="elz6zldko09c" class="animable"></path></g></g><g id="elnwy0g7w75t"><polygon points="58.85 354.8 58.85 291.24 75.75 271.27 140.69 271.27 157.88 290.88 161.48 373.17 161.48 385.16 144.92 410.25 118.06 410.25 78.75 411.12 58.85 390.87 58.85 354.8" style="opacity: 0.3; transform-origin: 110.165px 341.195px;" class="animable"></polygon></g><path d="M132.24,384.59,119.93,403a2.37,2.37,0,0,0,2,3.68h20.69a2.78,2.78,0,0,0,2.31-1.24L157.21,387a2.37,2.37,0,0,0-2-3.68H134.55A2.75,2.75,0,0,0,132.24,384.59Z" style="fill: rgb(235, 235, 235); transform-origin: 138.57px 395px;" id="el7q63os9az7b" class="animable"></path><g id="eldpa7n7qkeds"><g style="opacity: 0.3; transform-origin: 124.11px 403.43px;" class="animable"><path d="M125.83,403.43a1.72,1.72,0,1,1-1.72-1.72A1.72,1.72,0,0,1,125.83,403.43Z" id="elxx6gk9k0x8k" class="animable" style="transform-origin: 124.11px 403.43px;"></path></g></g><g id="el5ow3u8te40m"><g style="opacity: 0.3; transform-origin: 153.18px 386.87px;" class="animable"><circle cx="153.18" cy="386.87" r="1.72" id="elgf8srvjjgdw" class="animable" style="transform-origin: 153.18px 386.87px;"></circle></g></g><g id="elfdf4l7cac3"><g style="opacity: 0.3; transform-origin: 59.37px 270.29px;" class="animable"><path d="M57.82,261.75H67.91a0,0,0,0,1,0,0v17.08a0,0,0,0,1,0,0H50.83a0,0,0,0,1,0,0V268.73A7,7,0,0,1,57.82,261.75Z" id="el7b6eizw5a7f" class="animable" style="transform-origin: 59.37px 270.29px;"></path></g></g><path d="M62.26,270.29a2.89,2.89,0,1,1-2.89-2.9A2.89,2.89,0,0,1,62.26,270.29Z" style="fill: rgb(38, 50, 56); transform-origin: 59.37px 270.28px;" id="el8aq9qokl25o" class="animable"></path><g id="elkd2anq4ke5s"><g style="opacity: 0.3; transform-origin: 157.925px 270.285px;" class="animable"><path d="M149.39,261.75h10a7.07,7.07,0,0,1,7.07,7.07v10a0,0,0,0,1,0,0H149.39a0,0,0,0,1,0,0V261.75A0,0,0,0,1,149.39,261.75Z" id="eleu1jz7r7jh" class="animable" style="transform-origin: 157.925px 270.285px;"></path></g></g><path d="M160.64,270.75a2.89,2.89,0,1,1-2.89-2.89A2.89,2.89,0,0,1,160.64,270.75Z" style="fill: rgb(38, 50, 56); transform-origin: 157.75px 270.75px;" id="el10h446ahog8r" class="animable"></path><g id="elrg4mie5uam"><g style="opacity: 0.3; transform-origin: 59.19px 418.79px;" class="animable"><path d="M50.65,410.25H67.73a0,0,0,0,1,0,0v17.08a0,0,0,0,1,0,0H62.17a11.52,11.52,0,0,1-11.52-11.52v-5.56A0,0,0,0,1,50.65,410.25Z" id="el9f7mc9szays" class="animable" style="transform-origin: 59.19px 418.79px;"></path></g></g><path d="M62.08,418.79a2.89,2.89,0,1,1-2.89-2.89A2.89,2.89,0,0,1,62.08,418.79Z" style="fill: rgb(38, 50, 56); transform-origin: 59.19px 418.79px;" id="elljbuc8jda5" class="animable"></path><g id="el7b1225zc8v4"><g style="opacity: 0.3; transform-origin: 157.75px 418.79px;" class="animable"><path d="M149.21,427.33h0V410.25h17.08A17.08,17.08,0,0,1,149.21,427.33Z" id="elrpggwdhkfbp" class="animable" style="transform-origin: 157.75px 418.79px;"></path></g></g><path d="M160.64,418.79a2.89,2.89,0,1,1-2.89-2.89A2.89,2.89,0,0,1,160.64,418.79Z" style="fill: rgb(38, 50, 56); transform-origin: 157.75px 418.79px;" id="elt6zg3k8p13n" class="animable"></path><path d="M109.87,272.92a49.25,49.25,0,1,0,49.25,49.25A49.25,49.25,0,0,0,109.87,272.92Zm0,55.45a6.2,6.2,0,1,1,6.2-6.2A6.2,6.2,0,0,1,109.87,328.37Z" style="fill: rgb(81, 208, 141); transform-origin: 109.87px 322.17px;" id="elpfxedwsciy" class="animable"></path><g id="elrxtvljnee9p"><g style="opacity: 0.3; transform-origin: 109.87px 322.17px;" class="animable"><path d="M109.87,272.92a49.25,49.25,0,1,0,49.25,49.25A49.25,49.25,0,0,0,109.87,272.92Zm0,55.45a6.2,6.2,0,1,1,6.2-6.2A6.2,6.2,0,0,1,109.87,328.37Z" style="fill: rgb(255, 255, 255); transform-origin: 109.87px 322.17px;" id="elyq1q4tynnlj" class="animable"></path></g></g><g id="elxeoyl1a8n4"><g style="opacity: 0.3; transform-origin: 109.87px 322.17px;" class="animable"><path d="M109.87,306.36a15.81,15.81,0,1,0,15.81,15.81A15.81,15.81,0,0,0,109.87,306.36Zm0,22a6.2,6.2,0,1,1,6.2-6.2A6.2,6.2,0,0,1,109.87,328.37Z" id="elbt8c89vevmr" class="animable" style="transform-origin: 109.87px 322.17px;"></path></g></g><path d="M112.46,311.43a2.2,2.2,0,1,1-2.19-2.19A2.2,2.2,0,0,1,112.46,311.43Z" style="fill: rgb(224, 224, 224); transform-origin: 110.26px 311.44px;" id="elk6ob8oa4a2d" class="animable"></path><path d="M101.67,319a2.19,2.19,0,1,1-.73-3A2.19,2.19,0,0,1,101.67,319Z" style="fill: rgb(224, 224, 224); transform-origin: 99.7957px 317.867px;" id="el42slq2iu4ru" class="animable"></path><path d="M105.15,331.59a2.2,2.2,0,1,1-.73-3A2.2,2.2,0,0,1,105.15,331.59Z" style="fill: rgb(224, 224, 224); transform-origin: 103.262px 330.461px;" id="elnysomaf4fee" class="animable"></path><path d="M122,319a2.2,2.2,0,1,1-.73-3A2.2,2.2,0,0,1,122,319Z" style="fill: rgb(224, 224, 224); transform-origin: 120.112px 317.871px;" id="ele2gxvxisn3h" class="animable"></path><path d="M119.28,330.94a2.19,2.19,0,1,1-.73-3A2.19,2.19,0,0,1,119.28,330.94Z" style="fill: rgb(224, 224, 224); transform-origin: 117.406px 329.807px;" id="elxqsqqc3azz" class="animable"></path><g id="elmgb0hhg6pc"><g style="opacity: 0.3; transform-origin: 130.11px 350.955px;" class="animable"><path d="M158.37,330.45,101.85,371c1.38.22,2.67.38,3.86.46l51.53-35.74A47.52,47.52,0,0,0,158.37,330.45Z" style="fill: rgb(255, 255, 255); transform-origin: 130.11px 350.955px;" id="elah0cysvrbqu" class="animable"></path></g></g><g id="elojsvrwooupo"><circle cx="93.88" cy="376.15" r="6.98" style="fill: rgb(81, 208, 141); transform-origin: 93.88px 376.15px; transform: rotate(-41.3478deg);" class="animable"></circle></g><path d="M89.52,370.7l29.83-23.63a.18.18,0,0,1,.26.24L99.32,380.53Z" style="fill: rgb(81, 208, 141); transform-origin: 104.579px 363.782px;" id="elwyyi806gl2h" class="animable"></path><g id="eli5m0cunte5q"><g style="opacity: 0.3; transform-origin: 93.8854px 376.15px;" class="animable"><path d="M100.27,375.58a6.41,6.41,0,1,1-7-5.81A6.41,6.41,0,0,1,100.27,375.58Z" id="elu0hkxfylbdo" class="animable" style="transform-origin: 93.8854px 376.15px;"></path></g></g><path d="M96.85,375.89a3,3,0,1,1-3.24-2.71A3,3,0,0,1,96.85,375.89Z" style="fill: rgb(38, 50, 56); transform-origin: 93.863px 376.169px;" id="elhxgj4b2y8oa" class="animable"></path><path d="M61.45,363.78v24.49a3.59,3.59,0,0,0,1.06,2.55l15,15A3.6,3.6,0,0,0,80,406.86h32.54a3.59,3.59,0,0,0,3.59-3.59V388.41a3.6,3.6,0,0,0-3.59-3.6H90.41a3.58,3.58,0,0,1-2.67-1.19l-20-22.24A3.57,3.57,0,0,0,65,360.19h0A3.59,3.59,0,0,0,61.45,363.78Z" style="fill: rgb(235, 235, 235); transform-origin: 88.79px 383.525px;" id="elqfsqorl2qam" class="animable"></path><g id="el7g8027oswjh"><g style="opacity: 0.3; transform-origin: 99.6596px 301.775px;" class="animable"><path d="M61.36,313.63l68.75-36.37a48.89,48.89,0,0,1,8.59,5L60.79,326.29A49.66,49.66,0,0,1,61.36,313.63Z" style="fill: rgb(255, 255, 255); transform-origin: 99.6596px 301.775px;" id="ely4rome68kg" class="animable"></path></g></g><g id="elzdn3rlmk0pn"><g style="opacity: 0.3; transform-origin: 93.48px 290.98px;" class="animable"><path d="M62.72,307.91l61.52-32.86c-1.33-.4-2.59-.74-3.75-1L64.54,302.88A48.26,48.26,0,0,0,62.72,307.91Z" style="fill: rgb(255, 255, 255); transform-origin: 93.48px 290.98px;" id="el64ox0orfucv" class="animable"></path></g></g></g><g id="freepik--device-2--inject-12" class="animable animator-active" style="transform-origin: 246.1px 354.69px;"><polygon points="242.32 268.12 244.59 274.33 257.83 274.33 260.11 268.18 242.32 268.12" style="fill: rgb(38, 50, 56); transform-origin: 251.215px 271.225px;" id="eleslyh4l4weu" class="animable"></polygon><rect x="248.2" y="270.34" width="6.13" height="15.16" style="fill: rgb(38, 50, 56); transform-origin: 251.265px 277.92px;" id="el07xgfy7ltiyp" class="animable"></rect><path d="M349.16,382.13h-6.43v-1h6.43a2.56,2.56,0,0,0,2.56-2.56V313.41a7.9,7.9,0,0,0-7.89-7.89H258.17a7.46,7.46,0,0,1-7.45-7.45V284.46h1v13.61a6.45,6.45,0,0,0,6.45,6.45h85.66a8.9,8.9,0,0,1,8.89,8.89v65.16A3.56,3.56,0,0,1,349.16,382.13Z" style="fill: rgb(38, 50, 56); transform-origin: 301.72px 333.295px;" id="el4zhr89jjcu4" class="animable"></path><rect x="139.48" y="325.62" width="170.11" height="115.64" rx="11.29" style="fill: rgb(81, 208, 141); transform-origin: 224.535px 383.44px;" id="elmh9uop9mfm" class="animable"></rect><g id="el188t0iih9ou"><g style="opacity: 0.3; transform-origin: 224.535px 383.44px;" class="animable"><rect x="139.48" y="325.62" width="170.11" height="115.64" rx="11.29" id="elwvj5i1qat2o" class="animable" style="transform-origin: 224.535px 383.44px;"></rect></g></g><rect x="147.27" y="325.62" width="170.11" height="115.64" rx="11.29" style="fill: rgb(81, 208, 141); transform-origin: 232.325px 383.44px;" id="elnwm41h1maga" class="animable"></rect><g id="ely4m21cmn1ud"><path d="M322.15,369.61h14a4.77,4.77,0,0,1,4.77,4.77v19.31a0,0,0,0,1,0,0H317.38a0,0,0,0,1,0,0V374.38A4.77,4.77,0,0,1,322.15,369.61Z" style="fill: rgb(38, 50, 56); transform-origin: 329.15px 381.65px; transform: rotate(90deg);" class="animable"></path></g><g id="el0alrrrbgajw"><rect x="339.88" y="380.1" width="5.71" height="3.1" style="fill: rgb(38, 50, 56); transform-origin: 342.735px 381.65px; transform: rotate(90deg);" class="animable"></rect></g><rect x="156.71" y="343.22" width="6.63" height="9.32" style="fill: rgb(255, 255, 255); transform-origin: 160.025px 347.88px;" id="eljfd066tobc" class="animable"></rect><path d="M219.73,322.61h-21a.5.5,0,0,1-.5-.5.5.5,0,0,1,.5-.5h21a.5.5,0,0,1,.5.5A.51.51,0,0,1,219.73,322.61Z" style="fill: rgb(81, 208, 141); transform-origin: 209.23px 322.11px;" id="elqbbfregi4yr" class="animable"></path><path d="M228.44,322.61h-4.38a.51.51,0,0,1-.5-.5.5.5,0,0,1,.5-.5h4.38a.5.5,0,0,1,.5.5A.5.5,0,0,1,228.44,322.61Z" style="fill: rgb(81, 208, 141); transform-origin: 226.25px 322.11px;" id="elfh3ae28d9i9" class="animable"></path></g><g id="freepik--Character--inject-12" class="animable" style="transform-origin: 401.414px 309.737px;"><polygon points="443.69 438.99 435.5 439.79 429.44 419.04 441.9 417.69 443.69 438.99" style="fill: rgb(238, 193, 187); transform-origin: 436.565px 428.74px;" id="ellursb38t2x" class="animable"></polygon><path d="M434.31,436.17h2.92a2.06,2.06,0,0,1,1.67.87c1.69,2.3,3,1.43,4.79-.73,1.17-.14,1.48,1.2,1.57,1.56l2.19,7.95a1.25,1.25,0,0,1-.86,1.55,1.49,1.49,0,0,1-.36.05H423.05c-3.68,0-4.45-3.72-2.93-4.06,6.83-1.51,11.66-3.52,13.77-5.51C434.29,437.51,433.88,437.25,434.31,436.17Z" style="fill: rgb(38, 50, 56); transform-origin: 433.442px 441.795px;" id="elbzkzzdkyyg" class="animable"></path><path d="M430,438.88a13.35,13.35,0,0,0,2.74-.35.17.17,0,0,0,.1-.21.19.19,0,0,0-.1-.1c-.41-.2-4.07-1.91-5-1.26a.55.55,0,0,0-.24.52,1.19,1.19,0,0,0,.5.95A3.23,3.23,0,0,0,430,438.88Zm2.16-.57c-1.07.2-3.08.46-3.91-.16a.91.91,0,0,1-.36-.69.2.2,0,0,1,.09-.22C428.44,436.88,430.6,437.64,432.11,438.31Z" style="fill: rgb(81, 208, 141); transform-origin: 430.172px 437.855px;" id="elod40kr6mpj" class="animable"></path><path d="M432.65,438.54h.11a.17.17,0,0,0,.05-.18c0-.15-.86-3.75-2.86-3.52-.5.07-.64.31-.66.51-.13.95,2.18,2.76,3.27,3.21Zm-2.5-3.41c1.27,0,2,2.1,2.25,2.94-1.19-.63-2.86-2.13-2.76-2.71,0-.05,0-.19.37-.22Z" style="fill: rgb(81, 208, 141); transform-origin: 431.051px 436.695px;" id="elgl9g59rct1j" class="animable"></path><path d="M434.76,440.28a.25.25,0,0,1-.21-.12,3.31,3.31,0,0,0-2.31-1.49.24.24,0,0,1-.21-.28.26.26,0,0,1,.28-.21,3.78,3.78,0,0,1,2.66,1.71.25.25,0,0,1-.08.35A.28.28,0,0,1,434.76,440.28Z" style="fill: rgb(81, 208, 141); transform-origin: 433.518px 439.229px;" id="el0h2yjhkpfonu" class="animable"></path><path d="M432.94,441.65a.27.27,0,0,1-.21-.12,3.27,3.27,0,0,0-2.3-1.49.25.25,0,1,1,.06-.49,3.82,3.82,0,0,1,2.67,1.71.27.27,0,0,1-.08.35A.33.33,0,0,1,432.94,441.65Z" style="fill: rgb(81, 208, 141); transform-origin: 431.682px 440.595px;" id="elz6mjkn1pgqh" class="animable"></path><path d="M430.68,442.8a.27.27,0,0,1-.21-.12,3.31,3.31,0,0,0-2.31-1.49.25.25,0,1,1,.07-.49,3.8,3.8,0,0,1,2.66,1.71.25.25,0,0,1-.08.35A.28.28,0,0,1,430.68,442.8Z" style="fill: rgb(81, 208, 141); transform-origin: 429.42px 441.745px;" id="el96is2rhicag" class="animable"></path><g id="elifk36om9hdq"><polygon points="432.64 430.01 433.38 432.55 443.03 431.07 442.85 428.98 432.64 430.01" style="opacity: 0.3; transform-origin: 437.835px 430.765px;" class="animable"></polygon></g><polygon points="395.99 438.99 387.8 439.79 381.74 419.04 394.21 417.69 395.99 438.99" style="fill: rgb(238, 193, 187); transform-origin: 388.865px 428.74px;" id="els67t48aotgj" class="animable"></polygon><path d="M386.61,436.17h2.93a2.05,2.05,0,0,1,1.66.87c1.69,2.3,3,1.43,4.79-.73,1.17-.14,1.48,1.2,1.58,1.56l2.19,7.95a1.26,1.26,0,0,1-.86,1.55,1.5,1.5,0,0,1-.37.05H375.36c-3.69,0-4.45-3.72-2.94-4.06,6.83-1.51,11.67-3.52,13.78-5.51C386.59,437.51,386.19,437.25,386.61,436.17Z" style="fill: rgb(38, 50, 56); transform-origin: 385.748px 441.795px;" id="elum8xwhrin5p" class="animable"></path><path d="M382.25,438.88a13.35,13.35,0,0,0,2.74-.35.16.16,0,0,0,.1-.21.17.17,0,0,0-.1-.1c-.41-.2-4.07-1.91-5-1.26a.53.53,0,0,0-.24.52,1.18,1.18,0,0,0,.49.95A3.24,3.24,0,0,0,382.25,438.88Zm2.17-.57c-1.08.2-3.09.46-3.92-.16a1,1,0,0,1-.36-.69.2.2,0,0,1,.1-.22C380.74,436.88,382.9,437.64,384.42,438.31Z" style="fill: rgb(81, 208, 141); transform-origin: 382.423px 437.855px;" id="elis2o5i097em" class="animable"></path><path d="M385,438.54h.12a.17.17,0,0,0,.05-.18c0-.15-.86-3.75-2.87-3.52-.5.07-.64.31-.66.51-.12.95,2.18,2.76,3.28,3.21Zm-2.5-3.41c1.27,0,2,2.1,2.26,2.94-1.2-.63-2.87-2.13-2.76-2.71,0-.05,0-.19.37-.22Z" style="fill: rgb(81, 208, 141); transform-origin: 383.407px 436.695px;" id="eln3wjt8cy6r" class="animable"></path><path d="M387.07,440.28a.25.25,0,0,1-.22-.12,3.27,3.27,0,0,0-2.3-1.49.25.25,0,0,1-.22-.28.27.27,0,0,1,.29-.21,3.8,3.8,0,0,1,2.66,1.71.26.26,0,0,1-.08.35A.33.33,0,0,1,387.07,440.28Z" style="fill: rgb(81, 208, 141); transform-origin: 385.822px 439.229px;" id="elcxy96xziq3k" class="animable"></path><path d="M385.25,441.65a.26.26,0,0,1-.21-.12,3.31,3.31,0,0,0-2.31-1.49.24.24,0,0,1-.21-.28.25.25,0,0,1,.28-.21,3.8,3.8,0,0,1,2.66,1.71.26.26,0,0,1-.08.35A.33.33,0,0,1,385.25,441.65Z" style="fill: rgb(81, 208, 141); transform-origin: 384.007px 440.599px;" id="elx784iehddee" class="animable"></path><path d="M383,442.8a.27.27,0,0,1-.22-.12,3.27,3.27,0,0,0-2.3-1.49.26.26,0,0,1-.22-.28.25.25,0,0,1,.29-.21,3.82,3.82,0,0,1,2.66,1.71.26.26,0,0,1-.08.35A.33.33,0,0,1,383,442.8Z" style="fill: rgb(81, 208, 141); transform-origin: 381.753px 441.748px;" id="elzvjw5sh1nq" class="animable"></path><g id="elu3nxkshrcz"><polygon points="384.94 430.01 385.69 432.55 395.33 431.07 395.15 428.98 384.94 430.01" style="opacity: 0.3; transform-origin: 390.135px 430.765px;" class="animable"></polygon></g><path d="M378.48,282.66s-6.79,30-10,56.11c-1,8-1.17,18.61.57,26.45l13.09,65.07,16.47-1.65c-2.59-28.06-6.19-62.68-7.23-77.41C395,334,402.7,313.09,410.29,292.31Z" style="fill: rgb(81, 208, 141); transform-origin: 389.011px 356.475px;" id="eltes3udjybgh" class="animable"></path><path d="M432.6,356.47c-.37-1.62-1-4.92-1.69-9.26l.06,0c-.53-5.75-1.52-32.42-3.34-49.43-1.4-10.84-4.17-18.17-7-21.76-.14-.19-.27-.35-.39-.5-.46-.58-.75-.9-.75-.9-.53.13-1,.26-1.58.37l-.58.13a83.7,83.7,0,0,1-37-1.06c-1.81,4.48-3.16,14-4.49,23.92,2.06,2.26,11.1,5.19,21.47,7.13l3,13.37c1.55,8.3,3.55,16.43,5.25,23.75l1.77,8c.11.52.21,1,.31,1.56.9,4.61,22.31,78.89,22.31,78.89l13.95-.82S437.65,378.45,432.6,356.47Z" style="fill: rgb(81, 208, 141); transform-origin: 409.87px 352.37px;" id="elxrkuu8mr7l" class="animable"></path><path d="M380.35,230.23c-1.74,9.58-5.22,22.18-5.22,22.18-2.24.47-18.37,0-18.37,0l.71,6.57s6,1.21,12,2.56c10.53,2.37,12.47,1.68,15.1-4.41S391,231.91,391,231.91Z" style="fill: rgb(238, 193, 187); transform-origin: 373.88px 246.517px;" id="el5dpxrtaxrqs" class="animable"></path><path d="M386.34,219.33a42.07,42.07,0,0,0-9.44,17.61l16.19,3.87s4.48-11.82,2.66-16.15C393.86,220.16,390.93,215.82,386.34,219.33Z" style="fill: rgb(38, 50, 56); transform-origin: 386.542px 229.429px;" id="elw717fjkt7w9" class="animable"></path><g id="el0d6o0u8ha2dg"><g style="opacity: 0.3; transform-origin: 384.07px 233px;" class="animable"><path d="M385.33,227a18,18,0,0,0-1.82,4.29,38.76,38.76,0,0,0-1,6.82l3.12.89C385.47,234.85,385.45,231.18,385.33,227Z" id="eleasvej8bg28" class="animable" style="transform-origin: 384.07px 233px;"></path></g></g><path d="M426,239.41l5.12-17.47c-3.24-4.84-19.28-8.55-19.28-8.55L401.3,214s-4.06.91-7.53,2c-4.64,1.52-7.15,2.73-8.26,5.31,0,0-1.94,5.7-.77,17.46.32,3.23,0,20-.95,25.59l-5.46,13.09c19.3,15,44,0,44,0a52.92,52.92,0,0,1-1.84-8.2c.28-3.31-.11-8.41,1.29-14.2C422.05,253.94,425.55,240.49,426,239.41Z" style="fill: rgb(38, 50, 56); transform-origin: 404.725px 248.753px;" id="eldu5w6mq555g" class="animable"></path><g id="elbqgnsiflbml"><path d="M424.39,244.2s-7.4-9.32-6.14-13.2l7.62,7.13Z" style="opacity: 0.3; transform-origin: 421.988px 237.6px;" class="animable"></path></g><path d="M428.86,220.21c4.05,1.36,8.09,14.17,8.09,14.17L425,242.25s-7-10.36-5.72-15.72C420.4,222,423.71,218.47,428.86,220.21Z" style="fill: rgb(38, 50, 56); transform-origin: 428.037px 231.004px;" id="elt45uq6xbu69" class="animable"></path><path d="M425.81,241.74s7.32,15.78,7.2,16.39c-.46,2.25-24,.73-24,.73l-.57,6.31a86.85,86.85,0,0,0,21.62,3.63c11.32.23,16.47-5.7,13.73-12.77-2.92-7.54-8.25-20.74-8.25-20.74Z" style="fill: rgb(238, 193, 187); transform-origin: 426.476px 252.048px;" id="eloxudn0auaen" class="animable"></path><g id="elcv19uzuuepg"><path d="M433,258.13a7.15,7.15,0,0,1,4.65.91s-.23-1-2.15-1.75a8.63,8.63,0,0,0-2.93-.33Z" style="opacity: 0.3; transform-origin: 435.11px 257.992px;" class="animable"></path></g><path d="M434.52,191.31c-.94-.84-2.38-.61-3.61-.88a6.44,6.44,0,0,1-4-3.59c-.85-1.64-1.32-3.46-2.14-5.12A9.73,9.73,0,0,0,420.2,177c-2-.9-6-.7-7.18,1.79l-.75,5.11c2.45,4.06,1.89,7.45,1.48,12.18-.31,3.46,1.58,5.21,3.34,7,1.46,1.51,4.84,2.11,6.94,1.94a4.59,4.59,0,0,0,3.1-1.27,2.25,2.25,0,0,0,0-3.08,8.35,8.35,0,0,0,8-6.26A3.26,3.26,0,0,0,434.52,191.31Z" style="fill: rgb(38, 50, 56); transform-origin: 423.779px 190.779px;" id="el5aupxrlmdew" class="animable"></path><path d="M414.39,178.7a5.19,5.19,0,0,1,3.58,3.11,5.46,5.46,0,0,1,.51,3.2,3.54,3.54,0,0,1-1.84,2.58,2.62,2.62,0,0,1-3-.5,3.3,3.3,0,0,1-.58-2.82,23.87,23.87,0,0,1,1-2.81,4.52,4.52,0,0,0,.17-2.92" style="fill: rgb(81, 208, 141); transform-origin: 415.747px 183.198px;" id="el2dgg78cvr4b" class="animable"></path><path d="M414.34,214.06s-3.28,2.52-7.5,6.15a14.86,14.86,0,0,1-2.87,2c-2.76,1.47-5.28,2.31-6,1a4.81,4.81,0,0,1-.36-.94c-.58-2.23-.34-5.37,1.47-6.8,2-1.62,3-3,2.64-5.2a16.65,16.65,0,0,0-1.16-3.77l1.6-1.87,8.37-8.44C410.36,201.76,409.93,211,414.34,214.06Z" style="fill: rgb(238, 193, 187); transform-origin: 405.835px 210.025px;" id="elgtjfdx5luu" class="animable"></path><g id="elnnzic1kxntq"><path d="M401.83,210.69c2.3-1.37,4.83-3.74,4.53-6.45a12.49,12.49,0,0,0-.66-2.91L401,207.52A15.74,15.74,0,0,1,401.83,210.69Z" style="opacity: 0.2; transform-origin: 403.692px 206.01px;" class="animable"></path></g><path d="M412.93,187.06c-.78,8.59-.93,12.24-5.37,16.75-6.68,6.78-16.95,4.5-18.71-4-1.6-7.67,0-20.45,8.4-24.06A11.06,11.06,0,0,1,412.93,187.06Z" style="fill: rgb(238, 193, 187); transform-origin: 400.652px 191.241px;" id="elwt0rrwp8rpm" class="animable"></path><path d="M402.22,189.77c0,.8-.54,1.46-1.1,1.48s-1-.64-.94-1.44.54-1.47,1.1-1.48S402.27,189,402.22,189.77Z" style="fill: rgb(38, 50, 56); transform-origin: 401.199px 189.79px;" id="elwfkx0mfhod" class="animable"></path><path d="M393.31,189.64c0,.78-.54,1.43-1.1,1.44s-1-.61-.94-1.39.54-1.42,1.1-1.44S393.36,188.86,393.31,189.64Z" style="fill: rgb(38, 50, 56); transform-origin: 392.289px 189.665px;" id="el2pjt0ih546s" class="animable"></path><path d="M403.59,186.69a.37.37,0,0,1-.3-.1,3.09,3.09,0,0,0-2.84-.79.38.38,0,0,1-.49-.29.46.46,0,0,1,.31-.53,3.85,3.85,0,0,1,3.59,1,.42.42,0,0,1,0,.6A.55.55,0,0,1,403.59,186.69Z" style="fill: rgb(38, 50, 56); transform-origin: 401.968px 185.784px;" id="elxot1exb634s" class="animable"></path><path d="M390.56,186.26a.4.4,0,0,1-.3,0,.41.41,0,0,1-.11-.58,4.4,4.4,0,0,1,3.28-2.16.39.39,0,0,1,.41.4.47.47,0,0,1-.42.45,3.51,3.51,0,0,0-2.58,1.74A.51.51,0,0,1,390.56,186.26Z" style="fill: rgb(38, 50, 56); transform-origin: 391.957px 184.904px;" id="elklgkp7fokw" class="animable"></path><path d="M409.27,192.45s-2.65-4-1.56-11.82a2.47,2.47,0,0,0-1.94-2.8c-3.71-.72-8.67-5.4-14.72,3.89,0,0,3.08-11.81,19.78-6.65,10.74,3.33,4.74,16.74,3.19,18.05S409.27,192.45,409.27,192.45Z" style="fill: rgb(38, 50, 56); transform-origin: 404.07px 183.667px;" id="elmksdncrfdn" class="animable"></path><path d="M415.54,194.06a6.92,6.92,0,0,1-4.18,3.25c-2.28.57-3.45-3.08-2.68-5.37a4.58,4.58,0,0,1,5.15-3C416,189.42,416.7,192.05,415.54,194.06Z" style="fill: rgb(238, 193, 187); transform-origin: 412.269px 193.117px;" id="el1m010y6a3ld" class="animable"></path><path d="M395.48,198.05a23.82,23.82,0,0,1,1.54,3.16c.2,0,.41-.08.61-.14,2.74-.64,3.79-1.84,4.14-3a4,4,0,0,0-.25-2.65c-1.25,1.21-3.75,2-5.11,2.37C395.84,198,395.48,198.05,395.48,198.05Z" style="fill: rgb(38, 50, 56); transform-origin: 398.685px 198.315px;" id="el2ktkmhshq2" class="animable"></path><path d="M396.41,197.81l.48.92c2.58-.61,4.31-1.38,4.93-2.35a3.55,3.55,0,0,0-.3-.94C400.27,196.65,397.77,197.44,396.41,197.81Z" style="fill: rgb(255, 255, 255); transform-origin: 399.115px 197.085px;" id="elb5oxfkyidjd" class="animable"></path><path d="M397.63,201.07c2.74-.64,3.79-1.84,4.14-3a9.17,9.17,0,0,0-2.9,1.32A3.37,3.37,0,0,0,397.63,201.07Z" style="fill: rgb(220, 87, 83); transform-origin: 399.7px 199.57px;" id="elbx81n29rmmt" class="animable"></path><path d="M395.62,189.41a29,29,0,0,1-2.86,5.23.66.66,0,0,0,.31,1,4.3,4.3,0,0,0,2.31,0Z" style="fill: rgb(212, 130, 125); transform-origin: 394.129px 192.604px;" id="eldxifslb8rxd" class="animable"></path><path d="M401.45,188.31l-2-.47S400.56,189.32,401.45,188.31Z" style="fill: rgb(38, 50, 56); transform-origin: 400.45px 188.251px;" id="el8l1jjmjvux" class="animable"></path><path d="M392.58,188.27l-2-.46S391.68,189.28,392.58,188.27Z" style="fill: rgb(38, 50, 56); transform-origin: 391.58px 188.217px;" id="el6mnbbr3ninw" class="animable"></path><path d="M389.54,185.36s-5.23-6.37,3.78-11.59c0,0,7.85-4.32,15.38.75s7.65,8.49.5,16.32c0,0,.78-1-1.87-3.36s-5.56-4.4-4.14-6.65a3.78,3.78,0,0,0-2.36,2.93l-3.86-1a7.17,7.17,0,0,1,1.19-3,6.89,6.89,0,0,0-2.66,2.91l-3.34.63s.49-3.07,1.43-4.17A19.59,19.59,0,0,0,389.54,185.36Z" style="fill: rgb(38, 50, 56); transform-origin: 401.244px 181.447px;" id="elaozbt7ykslv" class="animable"></path><rect x="361.06" y="241.74" width="47.22" height="16.19" style="fill: rgb(255, 255, 255); transform-origin: 384.67px 249.835px;" id="elay94q7vqdc" class="animable"></rect><path d="M357.11,242.5v34.24a1.72,1.72,0,0,0,1.72,1.72h50.4a1.72,1.72,0,0,0,1.72-1.72V245.87a1.72,1.72,0,0,0-1.72-1.72H378.58a1.74,1.74,0,0,1-1.5-.88l-1-1.69a1.42,1.42,0,0,0-1.24-.71h-16.1A1.65,1.65,0,0,0,357.11,242.5Z" style="fill: rgb(81, 208, 141); transform-origin: 384.03px 259.665px;" id="els70l8hjeqqd" class="animable"></path><path d="M410.94,257.71s-7.58,1.8-8.3,3.3,1.64,1.41,1.64,1.41-2.59.25-2.63,1.36c-.06,1.34,2.42,1.24,2.42,1.24s-2.11.29-2.08,1.29,2.83,1.12,2.83,1.12-1.45.49-1,1.17,6.35,1,8.12-.1,1.88-8.73,1.56-10.4S413,255.53,411,253v4.74Z" style="fill: rgb(238, 193, 187); transform-origin: 407.645px 261.11px;" id="elizuz7xisqo" class="animable"></path><g id="el137wzhiji54l"><path d="M404.29,262.54h0l4.5-.65a.12.12,0,0,0,.09-.14c0-.07-.06-.12-.12-.11l-4.5.65a.12.12,0,0,0-.1.14A.12.12,0,0,0,404.29,262.54Z" style="opacity: 0.2; transform-origin: 406.52px 262.09px;" class="animable"></path></g><g id="elgqpr76uo6np"><path d="M404.2,265.14h0l4.38-.28c.06,0,.1-.06.1-.13a.12.12,0,0,0-.12-.12l-4.37.28a.12.12,0,0,0-.1.14A.1.1,0,0,0,404.2,265.14Z" style="opacity: 0.2; transform-origin: 406.384px 264.875px;" class="animable"></path></g><g id="elmazqxz44kte"><path d="M405,267.55l3.26-.11a.13.13,0,0,0,0-.26l-3.26.12a.11.11,0,0,0-.1.13A.11.11,0,0,0,405,267.55Z" style="opacity: 0.2; transform-origin: 406.644px 267.365px;" class="animable"></path></g><path d="M357.77,256.42s7.19,1.84,7.85,3.25-1.56,1.31-1.56,1.31,2.44.27,2.47,1.32c0,1.26-2.3,1.14-2.3,1.14s2,.3,1.94,1.24-2.68,1-2.68,1,1.36.47,1,1.11-6,.85-7.65-.19-1.67-8.25-1.35-9.82-.33-2.43,1.64-4.82l.67,4.44Z" style="fill: rgb(238, 193, 187); transform-origin: 360.929px 259.643px;" id="elgi8246zftn" class="animable"></path><g id="elbgua7grgop"><path d="M364.05,261.1h0l-4.23-.67a.11.11,0,0,1-.09-.13c0-.07.06-.12.12-.11l4.23.67a.12.12,0,0,1,.09.14A.11.11,0,0,1,364.05,261.1Z" style="opacity: 0.2; transform-origin: 361.95px 260.645px;" class="animable"></path></g><g id="el4lnz5u3gh9"><path d="M364.1,263.55h0l-4.12-.32a.11.11,0,0,1-.1-.12A.11.11,0,0,1,360,263l4.12.32a.12.12,0,0,1,0,.23Z" style="opacity: 0.2; transform-origin: 362.043px 263.275px;" class="animable"></path></g><g id="eld3tnb8p4wv8"><path d="M363.35,265.81l-3.07-.15a.11.11,0,0,1-.1-.12.1.1,0,0,1,.11-.11l3.07.14a.12.12,0,0,1,.1.13A.13.13,0,0,1,363.35,265.81Z" style="opacity: 0.2; transform-origin: 361.82px 265.62px;" class="animable"></path></g></g><defs>     <filter id="active" height="200%">         <feMorphology in="SourceAlpha" result="DILATED" operator="dilate" radius="2"></feMorphology>                <feFlood flood-color="#32DFEC" flood-opacity="1" result="PINK"></feFlood>        <feComposite in="PINK" in2="DILATED" operator="in" result="OUTLINE"></feComposite>        <feMerge>            <feMergeNode in="OUTLINE"></feMergeNode>            <feMergeNode in="SourceGraphic"></feMergeNode>        </feMerge>    </filter>    <filter id="hover" height="200%">        <feMorphology in="SourceAlpha" result="DILATED" operator="dilate" radius="2"></feMorphology>                <feFlood flood-color="#ff0000" flood-opacity="0.5" result="PINK"></feFlood>        <feComposite in="PINK" in2="DILATED" operator="in" result="OUTLINE"></feComposite>        <feMerge>            <feMergeNode in="OUTLINE"></feMergeNode>            <feMergeNode in="SourceGraphic"></feMergeNode>        </feMerge>            <feColorMatrix type="matrix" values="0   0   0   0   0                0   1   0   0   0                0   0   0   0   0                0   0   0   1   0 "></feColorMatrix>    </filter></defs></svg>